<svg xmlns="http://www.w3.org/2000/svg" xmlns:xlink="http://www.w3.org/1999/xlink">
    <defs>
        <symbol viewBox="0 0 24 24" id="mdi-github"><path fill="currentColor" d="M12 2A10 10 0 0 0 2 12c0 4.42 2.87 8.17 6.84 9.5c.5.08.66-.23.66-.5v-1.69c-2.77.6-3.36-1.34-3.36-1.34c-.46-1.16-1.11-1.47-1.11-1.47c-.91-.62.07-.6.07-.6c1 .07 1.53 1.03 1.53 1.03c.87 1.52 2.34 1.07 2.91.83c.09-.65.35-1.09.63-1.34c-2.22-.25-4.55-1.11-4.55-4.92c0-1.11.38-2 1.03-2.71c-.1-.25-.45-1.29.1-2.64c0 0 .84-.27 2.75 1.02c.79-.22 1.65-.33 2.5-.33c.85 0 1.71.11 2.5.33c1.91-1.29 2.75-1.02 2.75-1.02c.55 1.35.2 2.39.1 2.64c.65.71 1.03 1.6 1.03 2.71c0 3.82-2.34 4.66-4.57 4.91c.36.31.69.92.69 1.85V21c0 .27.16.59.67.5C19.14 20.16 22 16.42 22 12A10 10 0 0 0 12 2Z"></path></symbol>
        <symbol viewBox="0 0 24 24" id="svelte-logo"><path fill="currentColor" d="M10.354 21.125a4.44 4.44 0 0 1-4.765-1.767a4.109 4.109 0 0 1-.703-3.107a3.898 3.898 0 0 1 .134-.522l.105-.321l.287.21a7.21 7.21 0 0 0 2.186 1.092l.208.063l-.02.208a1.253 1.253 0 0 0 .226.83a1.337 1.337 0 0 0 1.435.533a1.231 1.231 0 0 0 .343-.15l5.59-3.562a1.164 1.164 0 0 0 .524-.778a1.242 1.242 0 0 0-.211-.937a1.338 1.338 0 0 0-1.435-.533a1.23 1.23 0 0 0-.343.15l-2.133 1.36a4.078 4.078 0 0 1-1.135.499a4.44 4.44 0 0 1-4.765-1.766a4.108 4.108 0 0 1-.702-3.108a3.855 3.855 0 0 1 1.742-2.582l5.589-3.563a4.072 4.072 0 0 1 1.135-.499a4.44 4.44 0 0 1 4.765 1.767a4.109 4.109 0 0 1 .703 3.107a3.943 3.943 0 0 1-.134.522l-.105.321l-.286-.21a7.204 7.204 0 0 0-2.187-1.093l-.208-.063l.02-.207a1.255 1.255 0 0 0-.226-.831a1.337 1.337 0 0 0-1.435-.532a1.231 1.231 0 0 0-.343.15L8.62 9.368a1.162 1.162 0 0 0-.524.778a1.24 1.24 0 0 0 .211.937a1.338 1.338 0 0 0 1.435.533a1.235 1.235 0 0 0 .344-.151l2.132-1.36a4.067 4.067 0 0 1 1.135-.498a4.44 4.44 0 0 1 4.765 1.766a4.108 4.108 0 0 1 .702 3.108a3.857 3.857 0 0 1-1.742 2.583l-5.589 3.562a4.072 4.072 0 0 1-1.135.499m10.358-17.95C18.484-.015 14.082-.96 10.9 1.068L5.31 4.63a6.412 6.412 0 0 0-2.896 4.295a6.753 6.753 0 0 0 .666 4.336a6.43 6.43 0 0 0-.96 2.396a6.833 6.833 0 0 0 1.168 5.167c2.229 3.19 6.63 4.135 9.812 2.108l5.59-3.562a6.41 6.41 0 0 0 2.896-4.295a6.756 6.756 0 0 0-.665-4.336a6.429 6.429 0 0 0 .958-2.396a6.831 6.831 0 0 0-1.167-5.168Z"></path></symbol>
        <symbol id="drizzle-logo" xmlns="http://www.w3.org/2000/svg" fill="none" viewBox="0 0 160 160"><rect width="9.631" height="40.852" fill="currentColor" rx="4.816" transform="matrix(.87303 .48767 -.49721 .86763 43.48 67.304)"/><rect width="9.631" height="40.852" fill="currentColor" rx="4.816" transform="matrix(.87303 .48767 -.49721 .86763 76.94 46.534)"/><rect width="9.631" height="40.852" fill="currentColor" rx="4.816" transform="matrix(.87303 .48767 -.49721 .86763 128.424 46.535)"/><rect width="9.631" height="40.852" fill="currentColor" rx="4.816" transform="matrix(.87303 .48767 -.49721 .86763 94.957 67.304)"/></symbol>
        <symbol id="hanko-logo" xmlns="http://www.w3.org/2000/svg" fill="none" viewBox="0 0 105 35"><path fill="currentColor" d="M28.048 9.324v21.054h-3.063V18.852H12.877v2.844h9.044v12.51c0 .235.015.416.044.554 3.434-.527 6.557-1.913 9.103-3.938V16.009c-.015-2.205-.548-4.66-3.02-6.685Z"/><path fill="currentColor" d="M21.906 10.212h3.064v-6.31c1.85.374 8.85 4.66 9.132 11.386V27.77c2.265-2.912 3.611-6.49 3.611-10.374 0-8.765-6.823-16.033-15.763-17.392-.03.152-.044.333-.044.569v9.639Z"/><path fill="currentColor" d="M9.798 25.44V4.387h3.064v11.525H24.97v-2.843h-9.044V.559c0-.236-.015-.416-.044-.555-3.434.527-6.557 1.914-9.103 3.939v14.812c.015 2.22.548 4.674 3.02 6.685Z"/><path fill="currentColor" d="M15.94 24.566h-3.063v6.31c-1.85-.374-8.851-4.66-9.132-11.386V7.008C1.48 9.92.133 13.498.133 17.382c0 8.765 6.824 16.033 15.764 17.392.03-.153.044-.333.044-.569v-9.639Z"/><path fill="currentColor" d="M47.727 24.972V9.26h2.423v6.351h2.174V9.26h2.423v15.712h-2.423v-7.306H50.15v7.306h-2.423Z"/><path fill="currentColor" fill-rule="evenodd" d="m62.207 9.26-2.276 15.712h2.364l.338-2.807h2.57l.382 2.807h2.261L65.408 9.26h-3.2Zm1.66 3.081 1.072 7.9h-2.086l.984-7.9h.03Z" clip-rule="evenodd"/><path fill="currentColor" d="M73.015 24.972V9.26h1.91l3.377 9.433-.176-4.283V9.274h2.188v15.712h-1.718l-3.466-9.765.132 4.123v5.628h-2.247ZM85.85 24.972V9.26h2.423v7.234l2.424-7.234h2.51l-2.643 7.755 2.85 7.957h-2.57l-2.541-7.35v7.335H85.85v.015Z"/><path fill="currentColor" fill-rule="evenodd" d="M101.358 25.145c1.234 0 2.115-.376 2.673-1.128.558-.767.837-1.91.837-3.444v-7.19c0-1.418-.265-2.489-.808-3.227s-1.424-1.1-2.658-1.1c-2.394 0-3.583 1.447-3.583 4.327v7.19c0 1.52.279 2.677.852 3.429.572.767 1.468 1.143 2.687 1.143Zm0-2.069c-.441 0-.734-.188-.881-.55-.132-.361-.206-.998-.22-1.924v-7.335c0-.738.088-1.273.249-1.62.162-.333.456-.507.867-.507s.69.16.837.506c.147.348.22.897.22 1.635v7.321c0 .897-.073 1.534-.206 1.91-.132.376-.425.564-.866.564Z" clip-rule="evenodd"/></symbol>
        <symbol id="turso-logo" xmlns="http://www.w3.org/2000/svg" fill="none" viewBox="0 0 201 51"><g clip-path="url(#a)"><path fill="currentColor" d="M71.931 19.115v27.267h-8.388V19.115h-5.827V11.18h19.992v7.936H71.93ZM80.37 32.342V11.179h8.387v21.163c0 3.968 1.859 6.715 5.978 6.715 3.968 0 5.877-2.798 5.877-6.766V11.179H109v21.112c0 8.496-4.822 14.753-14.366 14.753-9.795 0-14.265-5.901-14.265-14.702ZM131.602 30.307l7.936 16.075h-8.991l-6.83-14.447h-2.261v14.447h-8.338V11.18h11.955c7.283 0 10.95 3.816 10.95 10.48 0 3.917-1.608 6.919-4.421 8.648Zm-10.146-11.802v6.511h2.914c1.908 0 3.013-1.322 3.013-3.306 0-1.933-1.155-3.205-3.013-3.205h-2.914ZM150.891 23.846l4.37 1.73c4.52 1.882 7.183 4.934 7.183 10.174 0 7.122-4.973 11.294-11.955 11.294-9.946 0-11.753-6.563-11.452-11.7h7.936c-.1 2.238.753 4.425 3.516 4.425 1.909 0 3.315-1.068 3.315-3.103 0-1.984-1.406-2.95-3.666-3.816-1.759-.712-3.517-1.373-5.425-2.34-3.517-1.83-5.375-5.29-5.375-9.563 0-6.156 4.42-10.429 11.201-10.429 8.188 0 11.152 4.731 10.799 10.988h-7.734c.049-2.187-1.055-3.713-3.015-3.713-1.908 0-2.863 1.17-2.863 2.645s.804 2.493 3.165 3.408ZM182.284 10.518c11.353 0 18.435 7.885 18.435 18.161 0 10.276-7.033 18.365-18.183 18.365-11.352 0-18.284-7.885-18.284-18.212 0-10.226 7.334-18.314 18.032-18.314Zm.202 28.59c6.128 0 9.443-4.579 9.443-10.327 0-5.749-3.516-10.327-9.494-10.327-6.127 0-9.393 4.578-9.393 10.327 0 5.8 3.667 10.327 9.444 10.327Z"/><path fill="currentColor" d="m47.292 2.09-1.175-.88-2.323 2.487-1.862-2.69-1.071.492 1.474 3.76-.683.73L36.362.41l-1.2.594 4.705 10.112-4.408 1.55h-.105l-2.39-2.843-2.391 2.845H16.718l-2.391-2.845-2.397 2.85h-.074l-4.432-1.558 4.705-10.11-1.2-.595-5.29 5.58-.682-.731 1.474-3.76-1.071-.492-1.862 2.69L1.175 1.21 0 2.09l3.616 6.034-1.861 1.962.65 4.966 4.31 1.646-.009 2.148h-4.08v.927l1.58 2.253 2.5.905v14.577l6.394 9.515 1.465 3.567 2.302-3.358 2.387 3.358 2.089-3.358 2.303 3.358 2.302-3.358 2.09 3.358 2.386-3.358 2.302 3.358 1.466-3.567 6.393-9.515V22.931l2.501-.905 1.58-2.253v-.927h-4.081l.006-2.153 4.295-1.64.65-4.967-1.86-1.962 3.616-6.034Zm-18.67 39.135h-13.27l1.659-3.377 1.658 3.377 1.66-2.264 1.658 2.264 1.659-2.264 1.659 2.264 1.658-2.264 1.66 2.264 1.658-3.377 1.659 3.377h-3.318Zm8.124-15.452-6.9 2.268-.298 6.4-5.91 1.31-5.91-1.31-.297-6.4-6.9-2.268v-3.417l8.92 2.528-.109 8.629h8.592l-.109-8.629 8.92-2.528v3.417Z"/></g><defs><clipPath id="a"><path fill="currentColor" d="M0 .41h200.719v50.18H0z"/></clipPath></defs></symbol>
        <symbol viewBox="0 0 24 24" id="material-symbols-drag-indicator"><path fill="currentColor" d="M9 20q-.825 0-1.413-.588T7 18q0-.825.588-1.413T9 16q.825 0 1.413.588T11 18q0 .825-.588 1.413T9 20Zm6 0q-.825 0-1.413-.588T13 18q0-.825.588-1.413T15 16q.825 0 1.413.588T17 18q0 .825-.588 1.413T15 20Zm-6-6q-.825 0-1.413-.588T7 12q0-.825.588-1.413T9 10q.825 0 1.413.588T11 12q0 .825-.588 1.413T9 14Zm6 0q-.825 0-1.413-.588T13 12q0-.825.588-1.413T15 10q.825 0 1.413.588T17 12q0 .825-.588 1.413T15 14ZM9 8q-.825 0-1.413-.588T7 6q0-.825.588-1.413T9 4q.825 0 1.413.588T11 6q0 .825-.588 1.413T9 8Zm6 0q-.825 0-1.413-.588T13 6q0-.825.588-1.413T15 4q.825 0 1.413.588T17 6q0 .825-.588 1.413T15 8Z"></path></symbol>
        <symbol viewBox="0 0 24 24" id="material-symbols-cancel-outline"><path fill="currentColor" d="m8.4 17l3.6-3.6l3.6 3.6l1.4-1.4l-3.6-3.6L17 8.4L15.6 7L12 10.6L8.4 7L7 8.4l3.6 3.6L7 15.6L8.4 17Zm3.6 5q-2.075 0-3.9-.788t-3.175-2.137q-1.35-1.35-2.137-3.175T2 12q0-2.075.788-3.9t2.137-3.175q1.35-1.35 3.175-2.137T12 2q2.075 0 3.9.788t3.175 2.137q1.35 1.35 2.138 3.175T22 12q0 2.075-.788 3.9t-2.137 3.175q-1.35 1.35-3.175 2.138T12 22Zm0-2q3.35 0 5.675-2.325T20 12q0-3.35-2.325-5.675T12 4Q8.65 4 6.325 6.325T4 12q0 3.35 2.325 5.675T12 20Zm0-8Z"></path></symbol>
        <symbol viewBox="0 0 24 24" id="material-symbols-delete-outline"><path fill="currentColor" d="M7 21q-.825 0-1.413-.588T5 19V6H4V4h5V3h6v1h5v2h-1v13q0 .825-.588 1.413T17 21H7ZM17 6H7v13h10V6ZM9 17h2V8H9v9Zm4 0h2V8h-2v9ZM7 6v13V6Z"></path></symbol>  
        <symbol viewBox="0 0 24 24" id="material-symbols-edit-outline"><path fill="currentColor" d="M5 19h1.4l8.625-8.625l-1.4-1.4L5 17.6V19ZM19.3 8.925l-4.25-4.2l1.4-1.4q.575-.575 1.413-.575t1.412.575l1.4 1.4q.575.575.6 1.388t-.55 1.387L19.3 8.925ZM17.85 10.4L7.25 21H3v-4.25l10.6-10.6l4.25 4.25Zm-3.525-.725l-.7-.7l1.4 1.4l-.7-.7Z"></path></symbol>
        <symbol viewBox="0 0 24 24" id="material-symbols-warning-rounded"><path fill="currentColor" d="M2.725 21q-.275 0-.5-.138t-.35-.362q-.125-.225-.138-.488t.138-.512l9.25-16q.15-.25.388-.375T12 3q.25 0 .488.125t.387.375l9.25 16q.15.25.138.513t-.138.487q-.125.225-.35.363t-.5.137H2.725ZM12 18q.425 0 .713-.288T13 17q0-.425-.288-.713T12 16q-.425 0-.713.288T11 17q0 .425.288.713T12 18Zm0-3q.425 0 .713-.288T13 14v-3q0-.425-.288-.713T12 10q-.425 0-.713.288T11 11v3q0 .425.288.713T12 15Z"></path></symbol>
        <symbol viewBox="0 0 24 24" id="mdi-plus-box-multiple"><path fill="currentColor" d="M19 11h-4v4h-2v-4H9V9h4V5h2v4h4m1-7H8a2 2 0 0 0-2 2v12a2 2 0 0 0 2 2h12a2 2 0 0 0 2-2V4a2 2 0 0 0-2-2M4 6H2v14a2 2 0 0 0 2 2h14v-2H4V6Z"></path></symbol>
        <symbol viewBox="0 0 24 24" id="material-symbols-logout-rounded"><path fill="currentColor" d="M5 21q-.825 0-1.413-.588T3 19V5q0-.825.588-1.413T5 3h6q.425 0 .713.288T12 4q0 .425-.288.713T11 5H5v14h6q.425 0 .713.288T12 20q0 .425-.288.713T11 21H5Zm12.175-8H10q-.425 0-.713-.288T9 12q0-.425.288-.713T10 11h7.175L15.3 9.125q-.275-.275-.275-.675t.275-.7q.275-.3.7-.313t.725.288L20.3 11.3q.3.3.3.7t-.3.7l-3.575 3.575q-.3.3-.713.288t-.712-.313q-.275-.3-.263-.713t.288-.687l1.85-1.85Z"></path></symbol>
        <symbol viewBox="0 0 14 14" id="streamline-money-graph-arrow-increase-ascend-growth-up-arrow-stats-graph-right-grow"><g fill="none" stroke="currentColor" stroke-linecap="round" stroke-linejoin="round"><path d="M9.5 3.5h4v4"></path><path d="M13.5 3.5L7.85 9.15a.5.5 0 0 1-.7 0l-2.3-2.3a.5.5 0 0 0-.7 0L.5 10.5"></path></g></symbol>
        <symbol viewBox="0 0 14 14" id="streamline-money-graph-arrow-decrease-down-stats-graph-descend-right-arrow"><g fill="none" stroke="currentColor" stroke-linecap="round" stroke-linejoin="round"><path d="M9.5 10.5h4v-4"></path><path d="M13.5 10.5L7.85 4.85a.5.5 0 0 0-.7 0l-2.3 2.3a.5.5 0 0 1-.7 0L.5 3.5"></path></g></symbol>
        <symbol viewBox="0 0 256 256" id="ph-gear-fill"><path fill="currentColor" d="M216 130.16q.06-2.16 0-4.32l14.92-18.64a8 8 0 0 0 1.48-7.06a107.6 107.6 0 0 0-10.88-26.25a8 8 0 0 0-6-3.93l-23.72-2.64q-1.48-1.56-3-3L186 40.54a8 8 0 0 0-3.94-6a107.29 107.29 0 0 0-26.25-10.86a8 8 0 0 0-7.06 1.48L130.16 40h-4.32L107.2 25.11a8 8 0 0 0-7.06-1.48a107.6 107.6 0 0 0-26.25 10.88a8 8 0 0 0-3.93 6l-2.64 23.76q-1.56 1.49-3 3L40.54 70a8 8 0 0 0-6 3.94a107.71 107.71 0 0 0-10.87 26.25a8 8 0 0 0 1.49 7.06L40 125.84v4.32L25.11 148.8a8 8 0 0 0-1.48 7.06a107.6 107.6 0 0 0 10.88 26.25a8 8 0 0 0 6 3.93l23.72 2.64q1.49 1.56 3 3L70 215.46a8 8 0 0 0 3.94 6a107.71 107.71 0 0 0 26.25 10.87a8 8 0 0 0 7.06-1.49L125.84 216q2.16.06 4.32 0l18.64 14.92a8 8 0 0 0 7.06 1.48a107.21 107.21 0 0 0 26.25-10.88a8 8 0 0 0 3.93-6l2.64-23.72q1.56-1.48 3-3l23.78-2.8a8 8 0 0 0 6-3.94a107.71 107.71 0 0 0 10.87-26.25a8 8 0 0 0-1.49-7.06ZM128 168a40 40 0 1 1 40-40a40 40 0 0 1-40 40Z"></path></symbol>
        <symbol viewBox="0 0 24 24" id="material-symbols-person"><path fill="currentColor" d="M12 12q-1.65 0-2.825-1.175T8 8q0-1.65 1.175-2.825T12 4q1.65 0 2.825 1.175T16 8q0 1.65-1.175 2.825T12 12Zm-8 8v-2.8q0-.85.438-1.563T5.6 14.55q1.55-.775 3.15-1.163T12 13q1.65 0 3.25.388t3.15 1.162q.725.375 1.163 1.088T20 17.2V20H4Z"></path></symbol>
        <symbol viewBox="0 0 24 24" id="ic-round-plus"><path fill="currentColor" d="M18 12.998h-5v5a1 1 0 0 1-2 0v-5H6a1 1 0 0 1 0-2h5v-5a1 1 0 0 1 2 0v5h5a1 1 0 0 1 0 2z"></path></symbol>
        <symbol viewBox="0 0 24 24" id="tabler-arrows-exchange"><path fill="none" stroke="currentColor" stroke-linecap="round" stroke-linejoin="round" stroke-width="2" d="M7 10h14l-4-4m0 8H3l4 4"></path></symbol>
        <symbol viewBox="0 0 24 24" id="ic-round-home"><path fill="currentColor" d="M10 19v-5h4v5c0 .55.45 1 1 1h3c.55 0 1-.45 1-1v-7h1.7c.46 0 .68-.57.33-.87L12.67 3.6c-.38-.34-.96-.34-1.34 0l-8.36 7.53c-.34.3-.13.87.33.87H5v7c0 .55.45 1 1 1h3c.55 0 1-.45 1-1z"></path></symbol>
        <symbol
            id="magnifying-glass"
            viewBox="0 0 24 24"
            fill="none"
            xmlns="http://www.w3.org/2000/svg"
        >
            <path
                d="M10 17C13.866 17 17 13.866 17 10C17 6.13401 13.866 3 10 3C6.13401 3 3 6.13401 3 10C3 13.866 6.13401 17 10 17Z"
                stroke="currentColor"
                stroke-width="1.5"
                stroke-linecap="round"
                stroke-linejoin="round"
            />
            <path
                d="M21 21L15 15"
                stroke="currentColor"
                stroke-width="1.5"
                stroke-linecap="round"
                stroke-linejoin="round"
            />
        </symbol>
        <symbol id="chevron-right" xmlns="http://www.w3.org/2000/svg"
            viewBox="0 0 24 24">
            <path
                fill="currentColor"
                stroke-width="1.5"
                d="M9.29 6.71a.996.996 0 0 0 0 1.41L13.17 12l-3.88 3.88a.996.996 0 1 0 1.41 1.41l4.59-4.59a.996.996 0 0 0 0-1.41L10.7 6.7c-.38-.38-1.02-.38-1.41.01z" />
        </symbol>
    </defs>
</svg>